<svg xmlns="http://www.w3.org/2000/svg" style="margin:auto;background:0 0" width="90" height="60" viewBox="0 0 100 100" preserveAspectRatio="xMidYMid" display="block"><rect x="49" y="40.5" rx="1" ry="1.35" width="2" height="5"><animate attributeName="opacity" values="1;0" keyTimes="0;1" dur="1s" begin="-0.9285714285714286s" repeatCount="indefinite"/></rect><rect x="49" y="40.5" rx="1" ry="1.35" width="2" height="5" transform="rotate(25.714 50 50)"><animate attributeName="opacity" values="1;0" keyTimes="0;1" dur="1s" begin="-0.8571428571428571s" repeatCount="indefinite"/></rect><rect x="49" y="40.5" rx="1" ry="1.35" width="2" height="5" transform="rotate(51.429 50 50)"><animate attributeName="opacity" values="1;0" keyTimes="0;1" dur="1s" begin="-0.7857142857142857s" repeatCount="indefinite"/></rect><rect x="49" y="40.5" rx="1" ry="1.35" width="2" height="5" transform="rotate(77.143 50 50)"><animate attributeName="opacity" values="1;0" keyTimes="0;1" dur="1s" begin="-0.7142857142857143s" repeatCount="indefinite"/></rect><rect x="49" y="40.5" rx="1" ry="1.35" width="2" height="5" transform="rotate(102.857 50 50)"><animate attributeName="opacity" values="1;0" keyTimes="0;1" dur="1s" begin="-0.6428571428571429s" repeatCount="indefinite"/></rect><rect x="49" y="40.5" rx="1" ry="1.35" width="2" height="5" transform="rotate(128.571 50 50)"><animate attributeName="opacity" values="1;0" keyTimes="0;1" dur="1s" begin="-0.5714285714285714s" repeatCount="indefinite"/></rect><rect x="49" y="40.5" rx="1" ry="1.35" width="2" height="5" transform="rotate(154.286 50 50)"><animate attributeName="opacity" values="1;0" keyTimes="0;1" dur="1s" begin="-0.5s" repeatCount="indefinite"/></rect><rect x="49" y="40.5" rx="1" ry="1.35" width="2" height="5" transform="rotate(180 50 50)"><animate attributeName="opacity" values="1;0" keyTimes="0;1" dur="1s" begin="-0.42857142857142855s" repeatCount="indefinite"/></rect><rect x="49" y="40.5" rx="1" ry="1.35" width="2" height="5" transform="rotate(205.714 50 50)"><animate attributeName="opacity" values="1;0" keyTimes="0;1" dur="1s" begin="-0.35714285714285715s" repeatCount="indefinite"/></rect><rect x="49" y="40.5" rx="1" ry="1.35" width="2" height="5" transform="rotate(231.429 50 50)"><animate attributeName="opacity" values="1;0" keyTimes="0;1" dur="1s" begin="-0.2857142857142857s" repeatCount="indefinite"/></rect><rect x="49" y="40.5" rx="1" ry="1.35" width="2" height="5" transform="rotate(257.143 50 50)"><animate attributeName="opacity" values="1;0" keyTimes="0;1" dur="1s" begin="-0.21428571428571427s" repeatCount="indefinite"/></rect><rect x="49" y="40.5" rx="1" ry="1.35" width="2" height="5" transform="rotate(282.857 50 50)"><animate attributeName="opacity" values="1;0" keyTimes="0;1" dur="1s" begin="-0.14285714285714285s" repeatCount="indefinite"/></rect><rect x="49" y="40.5" rx="1" ry="1.35" width="2" height="5" transform="rotate(308.571 50 50)"><animate attributeName="opacity" values="1;0" keyTimes="0;1" dur="1s" begin="-0.07142857142857142s" repeatCount="indefinite"/></rect><rect x="49" y="40.5" rx="1" ry="1.35" width="2" height="5" transform="rotate(334.286 50 50)"><animate attributeName="opacity" values="1;0" keyTimes="0;1" dur="1s" begin="0s" repeatCount="indefinite"/></rect></svg>