<svg width="29" height="37" fill="none" xmlns="http://www.w3.org/2000/svg"><path d="M0 .967v32.865a.967.967 0 0 0 .967.967H4.83a.967.967 0 0 0 0-1.933H1.933V1.933h15.468l.003 8.7a.966.966 0 0 0 .967.967h8.696v21.266h-2.903a.967.967 0 0 0 0 1.933h3.87a.967.967 0 0 0 .966-.967V10.633a.973.973 0 0 0-.284-.685L19.05.283A.972.972 0 0 0 18.367 0H.967A.966.966 0 0 0 0 .967zM19.335 3.3L25.7 9.666h-6.363l-.002-6.365zm-3.868 15.065v15.066l4.15-4.15a.967.967 0 0 1 1.367 1.367l-5.8 5.8a.963.963 0 0 1-1.05.21h-.004l-.009-.008a.96.96 0 0 1-.304-.202l-5.8-5.8a.966.966 0 0 1 1.367-1.367l4.15 4.15V18.366a.967.967 0 0 1 1.933 0z" fill="#fff"/></svg>